<svg width="297" height="284" viewBox="0 0 297 284" fill="none" xmlns="http://www.w3.org/2000/svg">
<path d="M92.0001 0L180.335 210.75H3.66553L92.0001 0Z" fill="#E6C41A"/>
<path d="M92.0001 0L180.335 210.75H3.66553L92.0001 0Z" fill="#E6C41A"/>
<path d="M95.0001 27L185.933 246H4.06745L95.0001 27Z" fill="#229DC3"/>
<path d="M108 73L196.335 283.75H19.6655L108 73Z" fill="white"/>
<path d="M3 209H51L35.5 246H3V209Z" fill="white"/>
<path d="M181 243H297V246H181V243Z" fill="#229DC3"/>
<path d="M0.419922 202.841H20.8057C23.2959 202.841 25.4606 203.109 27.2998 203.646C29.1553 204.167 30.6934 204.892 31.9141 205.819C33.1348 206.747 34.0381 207.854 34.624 209.14C35.2262 210.409 35.5273 211.785 35.5273 213.266C35.5273 215.691 34.7624 217.815 33.2324 219.638C34.9902 220.679 36.3005 222.03 37.1631 223.69C38.0257 225.351 38.457 227.239 38.457 229.354C38.457 231.129 38.1559 232.732 37.5537 234.164C36.9678 235.596 36.0645 236.825 34.8438 237.851C33.6393 238.86 32.1094 239.641 30.2539 240.194C28.4147 240.731 26.2419 241 23.7354 241H0.419922V202.841ZM23.7842 217.489C24.4515 217.489 25.1025 217.514 25.7373 217.562C26.8278 216.521 27.373 215.333 27.373 213.998C27.373 212.615 26.8278 211.549 25.7373 210.8C24.6631 210.035 23.0843 209.652 21.001 209.652H8.15918V217.489H23.7842ZM23.9307 234.262C26.014 234.262 27.5928 233.814 28.667 232.919C29.7575 232.024 30.3027 230.762 30.3027 229.135C30.3027 227.507 29.7575 226.238 28.667 225.326C27.5928 224.415 26.014 223.959 23.9307 223.959H8.15918V234.262H23.9307Z" fill="#D2382D"/>
<path d="M45.415 212.167H52.6172V226.229C52.6172 227.564 52.7637 228.785 53.0566 229.892C53.3496 230.982 53.846 231.918 54.5459 232.699C55.262 233.48 56.2061 234.091 57.3779 234.53C58.5661 234.953 60.0391 235.165 61.7969 235.165C62.627 235.165 63.4652 235.076 64.3115 234.896C65.1742 234.717 65.9961 234.473 66.7773 234.164C67.5586 233.839 68.2829 233.456 68.9502 233.017C69.6338 232.577 70.2197 232.097 70.708 231.576V212.167H77.9346V241H70.708V238.534C68.9339 239.592 67.1517 240.349 65.3613 240.805C63.571 241.26 61.8701 241.488 60.2588 241.488C57.6221 241.488 55.3597 241.171 53.4717 240.536C51.5999 239.901 50.0618 238.982 48.8574 237.777C47.6693 236.557 46.7985 235.067 46.2451 233.31C45.6917 231.535 45.415 229.517 45.415 227.255V212.167Z" fill="#D2382D"/>
<path d="M88.2617 232.162C90.2148 233.334 92.3633 234.197 94.707 234.75C97.0508 235.303 99.4515 235.58 101.909 235.58C103.569 235.58 104.953 235.466 106.06 235.238C107.166 235.01 108.053 234.717 108.721 234.359C109.388 234.001 109.86 233.594 110.137 233.139C110.413 232.683 110.552 232.219 110.552 231.747C110.552 231.063 110.251 230.478 109.648 229.989C109.062 229.501 108.086 229.257 106.719 229.257C106.084 229.257 105.4 229.298 104.668 229.379C103.936 229.46 103.162 229.55 102.349 229.647C101.551 229.729 100.713 229.81 99.834 229.892C98.9714 229.973 98.0924 230.014 97.1973 230.014C95.2441 230.014 93.5758 229.802 92.1924 229.379C90.8252 228.956 89.7103 228.378 88.8477 227.646C87.985 226.913 87.3584 226.05 86.9678 225.058C86.5771 224.049 86.3818 222.966 86.3818 221.811C86.3818 220.346 86.7236 218.995 87.4072 217.758C88.0908 216.521 89.0674 215.455 90.3369 214.56C91.6064 213.648 93.1364 212.94 94.9268 212.436C96.7334 211.931 98.7435 211.679 100.957 211.679C102.113 211.679 103.317 211.752 104.57 211.898C105.84 212.029 107.085 212.208 108.306 212.436C109.526 212.663 110.698 212.932 111.821 213.241C112.944 213.534 113.937 213.852 114.8 214.193L112.529 219.809C110.69 219.125 108.851 218.588 107.012 218.197C105.189 217.79 103.309 217.587 101.372 217.587C100.021 217.587 98.8737 217.693 97.9297 217.904C97.002 218.1 96.2451 218.368 95.6592 218.71C95.0732 219.035 94.6419 219.418 94.3652 219.857C94.1048 220.281 93.9746 220.728 93.9746 221.2C93.9746 221.542 94.0397 221.851 94.1699 222.128C94.3164 222.405 94.5443 222.649 94.8535 222.86C95.179 223.056 95.5941 223.21 96.0986 223.324C96.6195 223.422 97.2542 223.471 98.0029 223.471C98.6865 223.471 99.4108 223.43 100.176 223.349C100.941 223.267 101.738 223.186 102.568 223.104C103.398 223.007 104.253 222.917 105.132 222.836C106.027 222.755 106.938 222.714 107.866 222.714C109.591 222.714 111.097 222.917 112.383 223.324C113.685 223.731 114.759 224.301 115.605 225.033C116.452 225.766 117.087 226.628 117.51 227.621C117.933 228.614 118.145 229.696 118.145 230.868C118.145 232.382 117.795 233.79 117.095 235.092C116.395 236.394 115.353 237.525 113.97 238.485C112.586 239.429 110.861 240.17 108.794 240.707C106.743 241.244 104.367 241.513 101.665 241.513C100.005 241.513 98.4017 241.407 96.8555 241.195C95.3092 241 93.8363 240.731 92.4365 240.39C91.0368 240.032 89.7184 239.617 88.4814 239.145C87.2607 238.673 86.1458 238.168 85.1367 237.631L88.2617 232.162Z" fill="#D2382D"/>
<path d="M128.472 208.261C127.756 208.261 127.104 208.163 126.519 207.968C125.949 207.756 125.461 207.479 125.054 207.138C124.647 206.78 124.329 206.373 124.102 205.917C123.89 205.445 123.784 204.949 123.784 204.428C123.784 203.891 123.89 203.394 124.102 202.938C124.329 202.466 124.647 202.06 125.054 201.718C125.461 201.376 125.949 201.107 126.519 200.912C127.104 200.701 127.756 200.595 128.472 200.595C129.204 200.595 129.855 200.701 130.425 200.912C131.011 201.107 131.507 201.376 131.914 201.718C132.321 202.06 132.63 202.466 132.842 202.938C133.07 203.394 133.184 203.891 133.184 204.428C133.184 204.949 133.07 205.445 132.842 205.917C132.63 206.373 132.321 206.78 131.914 207.138C131.507 207.479 131.011 207.756 130.425 207.968C129.855 208.163 129.204 208.261 128.472 208.261ZM124.858 212.191H132.085V241H124.858V212.191Z" fill="#D2382D"/>
<path d="M141.362 212.191H148.589V214.633C150.509 213.542 152.34 212.777 154.082 212.338C155.84 211.898 157.557 211.679 159.233 211.679C161.431 211.679 163.465 212.004 165.337 212.655C167.209 213.29 168.828 214.242 170.195 215.512C171.562 216.781 172.629 218.368 173.394 220.272C174.175 222.16 174.565 224.35 174.565 226.84V241H167.363V228.012C167.363 226.433 167.135 225.025 166.68 223.788C166.24 222.535 165.597 221.485 164.751 220.639C163.921 219.776 162.904 219.125 161.699 218.686C160.511 218.23 159.176 218.002 157.695 218.002C156.914 218.002 156.108 218.083 155.278 218.246C154.465 218.409 153.659 218.645 152.861 218.954C152.08 219.247 151.323 219.621 150.591 220.077C149.858 220.517 149.191 221.021 148.589 221.591V241H141.362V212.191Z" fill="#D2382D"/>
<path d="M182.085 226.498C182.085 224.545 182.484 222.681 183.281 220.907C184.079 219.117 185.226 217.538 186.724 216.171C188.221 214.804 190.052 213.713 192.217 212.899C194.398 212.086 196.872 211.679 199.639 211.679C202.389 211.679 204.863 212.094 207.061 212.924C209.274 213.738 211.146 214.861 212.676 216.293C214.222 217.725 215.402 219.41 216.216 221.347C217.046 223.284 217.461 225.359 217.461 227.572C217.461 227.849 217.453 228.15 217.437 228.476C217.437 228.785 217.42 229.07 217.388 229.33H190.142C190.451 230.193 190.947 230.982 191.631 231.698C192.331 232.414 193.201 233.033 194.243 233.554C195.285 234.075 196.489 234.481 197.856 234.774C199.224 235.051 200.737 235.189 202.397 235.189C204.058 235.189 205.71 235.019 207.354 234.677C208.997 234.319 210.568 233.871 212.065 233.334L214.507 238.852C213.563 239.291 212.603 239.682 211.626 240.023C210.666 240.349 209.657 240.626 208.599 240.854C207.557 241.065 206.458 241.228 205.303 241.342C204.163 241.456 202.959 241.513 201.689 241.513C198.451 241.513 195.61 241.122 193.169 240.341C190.728 239.56 188.685 238.493 187.041 237.143C185.397 235.792 184.16 234.205 183.33 232.382C182.5 230.559 182.085 228.598 182.085 226.498ZM209.795 223.69C209.535 222.893 209.128 222.152 208.574 221.469C208.037 220.769 207.362 220.167 206.548 219.662C205.734 219.141 204.79 218.734 203.716 218.441C202.642 218.148 201.462 218.002 200.176 218.002C198.809 218.002 197.563 218.157 196.44 218.466C195.317 218.775 194.333 219.19 193.486 219.711C192.64 220.232 191.932 220.834 191.362 221.518C190.809 222.201 190.402 222.925 190.142 223.69H209.795Z" fill="#D2382D"/>
<path d="M226.396 232.162C228.35 233.334 230.498 234.197 232.842 234.75C235.186 235.303 237.586 235.58 240.044 235.58C241.704 235.58 243.088 235.466 244.194 235.238C245.301 235.01 246.188 234.717 246.855 234.359C247.523 234.001 247.995 233.594 248.271 233.139C248.548 232.683 248.687 232.219 248.687 231.747C248.687 231.063 248.385 230.478 247.783 229.989C247.197 229.501 246.221 229.257 244.854 229.257C244.219 229.257 243.535 229.298 242.803 229.379C242.07 229.46 241.297 229.55 240.483 229.647C239.686 229.729 238.848 229.81 237.969 229.892C237.106 229.973 236.227 230.014 235.332 230.014C233.379 230.014 231.711 229.802 230.327 229.379C228.96 228.956 227.845 228.378 226.982 227.646C226.12 226.913 225.493 226.05 225.103 225.058C224.712 224.049 224.517 222.966 224.517 221.811C224.517 220.346 224.858 218.995 225.542 217.758C226.226 216.521 227.202 215.455 228.472 214.56C229.741 213.648 231.271 212.94 233.062 212.436C234.868 211.931 236.878 211.679 239.092 211.679C240.247 211.679 241.452 211.752 242.705 211.898C243.975 212.029 245.22 212.208 246.44 212.436C247.661 212.663 248.833 212.932 249.956 213.241C251.079 213.534 252.072 213.852 252.935 214.193L250.664 219.809C248.825 219.125 246.986 218.588 245.146 218.197C243.324 217.79 241.444 217.587 239.507 217.587C238.156 217.587 237.008 217.693 236.064 217.904C235.137 218.1 234.38 218.368 233.794 218.71C233.208 219.035 232.777 219.418 232.5 219.857C232.24 220.281 232.109 220.728 232.109 221.2C232.109 221.542 232.174 221.851 232.305 222.128C232.451 222.405 232.679 222.649 232.988 222.86C233.314 223.056 233.729 223.21 234.233 223.324C234.754 223.422 235.389 223.471 236.138 223.471C236.821 223.471 237.546 223.43 238.311 223.349C239.076 223.267 239.873 223.186 240.703 223.104C241.533 223.007 242.388 222.917 243.267 222.836C244.162 222.755 245.073 222.714 246.001 222.714C247.726 222.714 249.232 222.917 250.518 223.324C251.82 223.731 252.894 224.301 253.74 225.033C254.587 225.766 255.221 226.628 255.645 227.621C256.068 228.614 256.279 229.696 256.279 230.868C256.279 232.382 255.929 233.79 255.229 235.092C254.53 236.394 253.488 237.525 252.104 238.485C250.721 239.429 248.996 240.17 246.929 240.707C244.878 241.244 242.502 241.513 239.8 241.513C238.14 241.513 236.536 241.407 234.99 241.195C233.444 241 231.971 240.731 230.571 240.39C229.172 240.032 227.853 239.617 226.616 239.145C225.396 238.673 224.281 238.168 223.271 237.631L226.396 232.162Z" fill="#D2382D"/>
<path d="M263.945 232.162C265.898 233.334 268.047 234.197 270.391 234.75C272.734 235.303 275.135 235.58 277.593 235.58C279.253 235.58 280.636 235.466 281.743 235.238C282.85 235.01 283.737 234.717 284.404 234.359C285.072 234.001 285.544 233.594 285.82 233.139C286.097 232.683 286.235 232.219 286.235 231.747C286.235 231.063 285.934 230.478 285.332 229.989C284.746 229.501 283.77 229.257 282.402 229.257C281.768 229.257 281.084 229.298 280.352 229.379C279.619 229.46 278.846 229.55 278.032 229.647C277.235 229.729 276.396 229.81 275.518 229.892C274.655 229.973 273.776 230.014 272.881 230.014C270.928 230.014 269.259 229.802 267.876 229.379C266.509 228.956 265.394 228.378 264.531 227.646C263.669 226.913 263.042 226.05 262.651 225.058C262.261 224.049 262.065 222.966 262.065 221.811C262.065 220.346 262.407 218.995 263.091 217.758C263.774 216.521 264.751 215.455 266.021 214.56C267.29 213.648 268.82 212.94 270.61 212.436C272.417 211.931 274.427 211.679 276.641 211.679C277.796 211.679 279.001 211.752 280.254 211.898C281.523 212.029 282.769 212.208 283.989 212.436C285.21 212.663 286.382 212.932 287.505 213.241C288.628 213.534 289.621 213.852 290.483 214.193L288.213 219.809C286.374 219.125 284.535 218.588 282.695 218.197C280.872 217.79 278.993 217.587 277.056 217.587C275.705 217.587 274.557 217.693 273.613 217.904C272.686 218.1 271.929 218.368 271.343 218.71C270.757 219.035 270.326 219.418 270.049 219.857C269.788 220.281 269.658 220.728 269.658 221.2C269.658 221.542 269.723 221.851 269.854 222.128C270 222.405 270.228 222.649 270.537 222.86C270.863 223.056 271.278 223.21 271.782 223.324C272.303 223.422 272.938 223.471 273.687 223.471C274.37 223.471 275.094 223.43 275.859 223.349C276.624 223.267 277.422 223.186 278.252 223.104C279.082 223.007 279.937 222.917 280.815 222.836C281.711 222.755 282.622 222.714 283.55 222.714C285.275 222.714 286.781 222.917 288.066 223.324C289.368 223.731 290.443 224.301 291.289 225.033C292.135 225.766 292.77 226.628 293.193 227.621C293.617 228.614 293.828 229.696 293.828 230.868C293.828 232.382 293.478 233.79 292.778 235.092C292.078 236.394 291.037 237.525 289.653 238.485C288.27 239.429 286.545 240.17 284.478 240.707C282.427 241.244 280.05 241.513 277.349 241.513C275.688 241.513 274.085 241.407 272.539 241.195C270.993 241 269.52 240.731 268.12 240.39C266.72 240.032 265.402 239.617 264.165 239.145C262.944 238.673 261.829 238.168 260.82 237.631L263.945 232.162Z" fill="#D2382D"/>
</svg>
